<svg viewBox="0 0 600 600" fill="none" xmlns="http://www.w3.org/2000/svg" class="w-full h-full">
    <!-- Definitions -->
    <defs>
        <linearGradient id="desk-gradient" x1="0" y1="0" x2="0" y2="100">
            <stop offset="0%" stop-color="#475569" />
            <stop offset="100%" stop-color="#334155" />
        </linearGradient>
        <linearGradient id="screen-gradient" x1="0" y1="0" x2="0" y2="100">
            <stop offset="0%" stop-color="#1e293b" />
            <stop offset="100%" stop-color="#0f172a" />
        </linearGradient>
        <linearGradient id="person-gradient" x1="0" y1="0" x2="0" y2="100">
            <stop offset="0%" stop-color="#60a5fa" />
            <stop offset="100%" stop-color="#3b82f6" />
        </linearGradient>
        <linearGradient id="light-gradient" x1="0" y1="0" x2="100" y2="0">
            <stop offset="0%" stop-color="#a855f7" />
            <stop offset="100%" stop-color="#6366f1" />
        </linearGradient>
    </defs>

    <!-- Background -->
    <rect width="600" height="600" fill="#f8fafc" />

    <!-- Wall Background -->
    <rect x="0" y="0" width="600" height="400" fill="#e2e8f0" />

    <!-- Window -->
    <g>
        <rect x="80" y="80" width="160" height="200" rx="8" fill="#bfdbfe" stroke="#3b82f6" stroke-width="4" />
        <line x1="160" y1="80" x2="160" y2="280" stroke="#3b82f6" stroke-width="4" />
        <line x1="80" y1="180" x2="240" y2="180" stroke="#3b82f6" stroke-width="4" />
        <circle cx="140" cy="140" r="25" fill="#fbbf24" opacity="0.8" />
        <circle cx="140" cy="140" r="30" fill="#fbbf24" opacity="0.3" />
    </g>

    <!-- Shelves with books -->
    <g>
        <rect x="360" y="100" width="180" height="12" fill="#64748b" />
        <rect x="370" y="72" width="25" height="28" fill="#3b82f6" />
        <rect x="398" y="72" width="22" height="28" fill="#8b5cf6" />
        <rect x="423" y="72" width="28" height="28" fill="#10b981" />
        <rect x="454" y="72" width="24" height="28" fill="#f59e0b" />
        <rect x="481" y="72" width="26" height="28" fill="#ef4444" />
        <rect x="360" y="180" width="180" height="12" fill="#64748b" />
        <rect x="370" y="152" width="30" height="28" fill="#06b6d4" />
        <rect x="403" y="152" width="24" height="28" fill="#a855f7" />
        <rect x="430" y="152" width="26" height="28" fill="#14b8a6" />
        <rect x="459" y="152" width="28" height="28" fill="#f97316" />
    </g>

    <!-- Floor -->
    <rect x="0" y="400" width="600" height="200" fill="#cbd5e1" />

    <!-- Desk -->
    <g>
        <rect x="120" y="380" width="400" height="20" rx="4" fill="url(#desk-gradient)" />
        <rect x="120" y="400" width="400" height="8" fill="#1e293b" opacity="0.5" />
        <rect x="140" y="400" width="15" height="160" fill="#334155" />
        <rect x="485" y="400" width="15" height="160" fill="#334155" />
    </g>

    <!-- Monitor -->
    <g>
        <rect x="285" y="340" width="70" height="8" rx="4" fill="#475569" />
        <rect x="310" y="320" width="20" height="28" rx="4" fill="#475569" />
        <rect x="220" y="180" width="200" height="150" rx="8" fill="#1e293b" stroke="#475569" stroke-width="6" />
        <rect x="230" y="190" width="180" height="130" fill="url(#screen-gradient)" />
        <line x1="240" y1="205" x2="340" y2="205" stroke="#60a5fa" stroke-width="2" />
        <line x1="240" y1="220" x2="300" y2="220" stroke="#a855f7" stroke-width="2" />
        <line x1="250" y1="235" x2="380" y2="235" stroke="#34d399" stroke-width="2" />
        <line x1="250" y1="250" x2="320" y2="250" stroke="#fbbf24" stroke-width="2" />
        <line x1="240" y1="265" x2="370" y2="265" stroke="#60a5fa" stroke-width="2" />
        <line x1="250" y1="280" x2="310" y2="280" stroke="#a855f7" stroke-width="2" />
        <line x1="240" y1="295" x2="360" y2="295" stroke="#34d399" stroke-width="2" />
        <rect x="365" y="293" width="2" height="8" fill="#60a5fa">
            <animate attributeName="opacity" values="1;0;1" dur="1s" repeatCount="indefinite" />
        </rect>
    </g>

    <!-- Keyboard -->
    <g>
        <rect x="240" y="350" width="140" height="50" rx="4" fill="#334155" />
        <rect x="245" y="355" width="130" height="40" rx="2" fill="#1e293b" />
        <!-- Keys -->
        <g>
            <rect x="250" y="360" width="14" height="8" rx="1" fill="#475569" />
            <rect x="268" y="360" width="14" height="8" rx="1" fill="#475569" />
            <rect x="286" y="360" width="14" height="8" rx="1" fill="#475569" />
            <rect x="304" y="360" width="14" height="8" rx="1" fill="#475569" />
            <rect x="322" y="360" width="14" height="8" rx="1" fill="#475569" />
            <rect x="340" y="360" width="14" height="8" rx="1" fill="#475569" />
            <rect x="358" y="360" width="14" height="8" rx="1" fill="#475569" />
            <rect x="255" y="372" width="14" height="8" rx="1" fill="#475569" />
            <rect x="273" y="372" width="14" height="8" rx="1" fill="#475569" />
            <rect x="291" y="372" width="14" height="8" rx="1" fill="#475569" />
            <rect x="309" y="372" width="14" height="8" rx="1" fill="#475569" />
            <rect x="327" y="372" width="14" height="8" rx="1" fill="#475569" />
            <rect x="345" y="372" width="14" height="8" rx="1" fill="#475569" />
            <rect x="260" y="384" width="14" height="8" rx="1" fill="#475569" />
            <rect x="278" y="384" width="14" height="8" rx="1" fill="#475569" />
            <rect x="296" y="384" width="14" height="8" rx="1" fill="#475569" />
            <rect x="314" y="384" width="14" height="8" rx="1" fill="#475569" />
            <rect x="332" y="384" width="14" height="8" rx="1" fill="#475569" />
        </g>
    </g>

    <!-- Mouse -->
    <ellipse cx="400" cy="375" rx="12" ry="18" fill="#334155" />
    <line x1="400" y1="365" x2="400" y2="385" stroke="#1e293b" stroke-width="1" />

    <!-- Coffee Mug -->
    <g>
        <rect x="460" y="360" width="40" height="50" rx="4" fill="#7c3aed" />
        <ellipse cx="480" cy="360" rx="20" ry="6" fill="#6d28d9" />
        <path d="M 500 375 Q 520 375 520 390 Q 520 405 500 405" stroke="#7c3aed" stroke-width="6" fill="none" />
        <path d="M 470 350 Q 468 340 470 330" stroke="#94a3b8" stroke-width="2" opacity="0.6" fill="none">
            <animate attributeName="opacity" values="0.6;0.2;0.6" dur="2s" repeatCount="indefinite" />
        </path>
        <path d="M 490 350 Q 492 340 490 330" stroke="#94a3b8" stroke-width="2" opacity="0.4" fill="none">
            <animate attributeName="opacity" values="0.4;0.8;0.4" dur="2.5s" repeatCount="indefinite" />
        </path>
    </g>

    <!-- Plant -->
    <g>
        <rect x="140" y="360" width="35" height="40" rx="4" fill="#94a3b8" />
        <ellipse cx="157.5" cy="360" rx="17.5" ry="6" fill="#64748b" />
        <ellipse cx="145" cy="345" rx="15" ry="20" fill="#10b981" transform="rotate(-20 145 345)" />
        <ellipse cx="157" cy="335" rx="18" ry="25" fill="#059669" />
        <ellipse cx="170" cy="345" rx="15" ry="20" fill="#10b981" transform="rotate(20 170 345)" />
    </g>

    <!-- Lamp -->
    <g>
        <rect x="500" y="240" width="8" height="120" fill="#64748b" />
        <path d="M 475 220 L 533 220 L 515 240 L 493 240 Z" fill="url(#light-gradient)" />
        <ellipse cx="504" cy="250" rx="60" ry="30" fill="#fbbf24" opacity="0.1" />
    </g>

    <!-- Decorative Code Symbols -->
    <g opacity="0.15">
        <text x="40" y="500" fill="#3b82f6" font-size="48" font-family="monospace">&lt;/&gt;</text>
        <text x="520" y="530" fill="#a855f7" font-size="48" font-family="monospace">{}</text>
    </g>

    <!-- Floating particles -->
    <circle cx="100" cy="150" r="3" fill="#a855f7" opacity="0.4">
        <animate attributeName="cy" values="150;130;150" dur="3s" repeatCount="indefinite" />
    </circle>
    <circle cx="540" cy="300" r="2" fill="#3b82f6" opacity="0.4">
        <animate attributeName="cy" values="300;320;300" dur="4s" repeatCount="indefinite" />
    </circle>
    <circle cx="180" cy="480" r="2.5" fill="#10b981" opacity="0.4">
        <animate attributeName="cx" values="180;200;180" dur="5s" repeatCount="indefinite" />
    </circle>
</svg>